<?xml version="1.0" encoding="utf-8"?>
<!-- Generator: Adobe Illustrator 28.2.0, SVG Export Plug-In . SVG Version: 6.00 Build 0)  -->
<svg version="1.1" id="Layer_1" xmlns="http://www.w3.org/2000/svg" xmlns:xlink="http://www.w3.org/1999/xlink" x="0px" y="0px"
	 viewBox="0 0 120 40" style="enable-background:new 0 0 120 40;" xml:space="preserve">
<style type="text/css">
	.st0{fill:#2957FA;}
</style>
<path class="st0" d="M33.23,25.54c0-0.35-0.03-0.71-0.1-1.06c-0.32-1.74-2.03-3.16-3.81-3.16c0,0,0,0,0,0l-0.63,0
	c-2.01,0-4.02,0.01-6.02,0c-0.77-0.02-1.48,0.17-2.08,0.54c-1.26,0.77-1.92,1.88-1.97,3.29c-0.02,0.65-0.01,1.29,0,1.94l0.3,0.05
	l0,0l-0.3,0.07c0.01-0.03,0.05-0.08,0.03-0.08l-0.59,0c-2.78-0.01-5.55-0.01-8.33,0c-0.3,0-0.5-0.08-0.65-0.24
	c-0.15-0.15-0.24-0.38-0.24-0.65c0-1.41,0-2.83,0-4.24l0-3.31c0.26,0,0.53,0,0.79,0c0.33,0,0.66,0,1,0c1.01,0.04,1.9-0.3,2.66-0.96
	c0.91-0.79,1.38-1.77,1.38-2.9c0.01-1.91,0.01-3.81,0-5.72l0-1.18c0-0.19-0.02-0.39-0.05-0.58c-0.31-1.85-1.98-3.27-3.88-3.29
	c-1.94-0.02-3.89-0.02-5.83,0l-0.76,0c-0.39,0-0.75,0.05-1.07,0.13C1.26,4.65,0.04,6.2,0.01,8.04c-0.02,1.85-0.01,3.7-0.01,5.55
	l0,0.83c0,0.38,0.04,0.76,0.1,1.12c0.3,1.7,2.03,3.14,3.78,3.14c0,0,0,0,0.01,0l0.6,0c0.43,0,0.86,0,1.35,0c0,0,0,0,0,0
	c-0.01,2.4-0.01,4.8,0,7.2c0,0.32,0.02,0.64,0.05,0.96c0.16,1.7,1.77,3.2,3.46,3.22c1.07,0.01,2.13,0.01,3.2,0.01l1.1,0l1.46,0.01
	c1.14,0,2.29,0,3.49,0c-0.01,0.54-0.02,1.17,0,1.81c0.01,0.3,0.04,0.75,0.15,1.17c0.42,1.62,2.07,2.88,3.76,2.88h1.33l5.31,0
	c0.2,0,0.4-0.02,0.6-0.04c2.01-0.28,3.48-1.96,3.48-4C33.24,29.79,33.24,27.66,33.23,25.54z M22.74,33.08
	c-0.68,0-1.11-0.32-1.26-0.91c-0.01-0.06-0.02-0.14-0.02-0.21l0-3.62h0l0-0.68c0.01-0.76,0.01-1.52-0.01-2.28
	c-0.01-0.3,0.11-0.59,0.33-0.82c0.23-0.24,0.56-0.38,0.87-0.38c0,0,0.01,0,0.01,0c2.12,0.03,4.3,0.03,6.48,0c0,0,0.01,0,0.01,0
	c0.31,0,0.65,0.16,0.89,0.41c0.19,0.2,0.29,0.43,0.27,0.64c-0.01,0.12,0,0.23,0.01,0.35c0.01,0.07,0.01,0.14,0.01,0.21l0,0.72
	c0,1.72,0,3.44-0.01,5.16c0,0.31-0.04,0.56-0.12,0.75c-0.2,0.45-0.57,0.67-1.15,0.67C26.96,33.09,24.85,33.09,22.74,33.08z
	 M10.67,15.82l-6.42,0c0,0,0,0,0,0c-0.9,0-1.34-0.42-1.35-1.29c-0.02-2.11-0.01-4.22,0-6.33c0-0.65,0.29-1.06,0.85-1.22
	c0.13-0.04,0.29-0.06,0.48-0.06c2.08,0,4.16-0.01,6.23,0c0.71,0,1.15,0.31,1.3,0.92c0.02,0.08,0.02,0.18,0.02,0.28
	c0,2.2,0,4.39,0,6.59C11.78,15.3,11.26,15.82,10.67,15.82z"/>
<g>
	<path class="st0" d="M51.28,9.82c0.76-0.92,1.13-2.06,1.13-3.42c0-1.62-0.53-2.93-1.59-3.92C49.77,1.49,48.36,1,46.62,1h-7.67
		v16.37h2.74v-5.59H45l4.75,5.59h3.42l-4.98-5.75C49.49,11.34,50.53,10.74,51.28,9.82z M41.66,9.28V3.53h4.94
		c0.97,0,1.73,0.26,2.28,0.77c0.55,0.51,0.83,1.22,0.83,2.11c0,0.9-0.28,1.61-0.83,2.12c-0.55,0.51-1.31,0.76-2.28,0.76H41.66z"/>
	<path class="st0" d="M60.04,5.59c-1.79,0-3.24,0.55-4.34,1.66c-1.1,1.11-1.65,2.56-1.65,4.35c0,1.86,0.57,3.34,1.71,4.44
		c1.14,1.11,2.66,1.66,4.56,1.66c0.98,0,1.92-0.18,2.79-0.54c0.88-0.36,1.61-0.85,2.19-1.47l-1.59-1.54
		c-0.34,0.36-0.82,0.65-1.43,0.86c-0.61,0.22-1.24,0.33-1.9,0.33c-1.01,0-1.85-0.25-2.5-0.75c-0.65-0.5-1.04-1.17-1.15-2.01h9.24
		c0.19-2.17-0.25-3.88-1.31-5.12C63.61,6.21,62.07,5.59,60.04,5.59z M56.77,10.54c0.17-0.86,0.54-1.52,1.12-1.99
		c0.58-0.47,1.32-0.7,2.22-0.7c0.95,0,1.72,0.24,2.33,0.72c0.6,0.48,0.95,1.14,1.04,1.97H56.77z"/>
	<path class="st0" d="M77.56,7.36c-0.95-1.2-2.35-1.8-4.21-1.8c-1.7,0-3.08,0.56-4.14,1.68c-1.06,1.12-1.59,2.57-1.59,4.35
		s0.53,3.23,1.59,4.35s2.44,1.68,4.14,1.68c1.86,0,3.26-0.6,4.21-1.8l0.02,1.54h2.34V5.82h-2.34L77.56,7.36z M76.32,14.23
		c-0.66,0.68-1.51,1.02-2.55,1.02c-1.05,0-1.89-0.34-2.55-1.02c-0.65-0.68-0.98-1.56-0.98-2.63c0-1.08,0.33-1.95,0.98-2.63
		c0.65-0.68,1.5-1.02,2.55-1.02c1.05,0,1.89,0.34,2.55,1.02c0.65,0.68,0.98,1.56,0.98,2.63C77.31,12.67,76.98,13.55,76.32,14.23z"/>
	<path class="st0" d="M91.3,11.55c-0.78-0.58-2.03-0.96-3.74-1.15c-0.84-0.09-1.45-0.25-1.81-0.46c-0.37-0.21-0.55-0.5-0.55-0.88
		c0-0.87,0.85-1.31,2.55-1.31c1.18,0,2.29,0.33,3.32,0.98l1.15-1.87c-1.29-0.89-2.82-1.33-4.59-1.33c-1.5,0-2.71,0.32-3.62,0.97
		c-0.92,0.65-1.38,1.5-1.38,2.56c0,1,0.41,1.8,1.23,2.42c0.82,0.62,1.98,1,3.5,1.13c0.89,0.1,1.53,0.25,1.93,0.47
		c0.4,0.22,0.6,0.53,0.6,0.94c0,0.87-0.77,1.31-2.32,1.31c-1.64,0-2.99-0.43-4.07-1.29l-1.22,1.9c1.53,1.14,3.27,1.71,5.22,1.71
		c1.5,0,2.7-0.33,3.62-0.99s1.37-1.53,1.37-2.61C92.47,12.96,92.08,12.13,91.3,11.55z"/>
	<path class="st0" d="M100.11,5.56c-1.86,0-3.35,0.57-4.48,1.7s-1.7,2.58-1.7,4.34s0.57,3.21,1.7,4.34s2.62,1.69,4.48,1.69
		c1.84,0,3.33-0.56,4.46-1.69s1.7-2.58,1.7-4.34s-0.57-3.21-1.7-4.34S101.95,5.56,100.11,5.56z M102.66,14.19
		c-0.65,0.7-1.51,1.05-2.55,1.05c-1.06,0-1.92-0.35-2.57-1.05c-0.65-0.7-0.98-1.57-0.98-2.6c0-1.03,0.33-1.9,0.98-2.6
		c0.65-0.7,1.51-1.05,2.57-1.05c1.05,0,1.9,0.35,2.55,1.05s0.98,1.57,0.98,2.6C103.65,12.63,103.32,13.49,102.66,14.19z"/>
	<path class="st0" d="M115.06,5.59c-1.68,0-3.02,0.58-4,1.75l-0.02-1.52h-2.34v11.56h2.62v-6.08c0-0.97,0.3-1.77,0.91-2.4
		c0.61-0.63,1.39-0.95,2.34-0.95c0.87,0,1.56,0.28,2.06,0.84c0.5,0.56,0.75,1.35,0.75,2.36v6.22H120v-6.39
		c0-1.64-0.45-2.95-1.35-3.93C117.76,6.08,116.56,5.59,115.06,5.59z"/>
</g>
<g>
	<path class="st0" d="M51.41,31.07c0.77-0.93,1.15-2.09,1.15-3.47c0-1.65-0.54-2.97-1.62-3.98c-1.08-1-2.5-1.51-4.27-1.51h-7.79
		v16.62h2.78v-5.67h3.37l4.82,5.67h3.47l-5.06-5.84C49.59,32.61,50.64,32,51.41,31.07z M41.64,30.52v-5.84h5.01
		c0.98,0,1.75,0.26,2.31,0.78c0.56,0.52,0.84,1.23,0.84,2.14c0,0.92-0.28,1.63-0.84,2.15c-0.56,0.51-1.33,0.77-2.31,0.77H41.64z"/>
	<path class="st0" d="M64.31,28.58c-0.97-1.22-2.39-1.83-4.27-1.83c-1.73,0-3.13,0.57-4.2,1.71c-1.08,1.14-1.62,2.61-1.62,4.42
		c0,1.8,0.54,3.28,1.62,4.42S58.31,39,60.04,39c1.88,0,3.31-0.61,4.27-1.83l0.02,1.57h2.37V27.01h-2.37L64.31,28.58z M63.05,35.55
		c-0.67,0.69-1.53,1.03-2.59,1.03c-1.06,0-1.92-0.35-2.59-1.03c-0.66-0.69-1-1.58-1-2.67c0-1.09,0.33-1.98,1-2.67
		c0.66-0.69,1.53-1.03,2.59-1.03c1.06,0,1.92,0.34,2.59,1.03c0.66,0.69,1,1.58,1,2.67C64.05,33.97,63.72,34.86,63.05,35.55z"/>
	<path class="st0" d="M71.27,21.98c-0.49,0-0.89,0.15-1.21,0.46c-0.32,0.31-0.48,0.71-0.48,1.2c0,0.46,0.16,0.84,0.48,1.15
		c0.32,0.31,0.72,0.46,1.21,0.46c0.51,0,0.92-0.15,1.25-0.46C72.84,24.48,73,24.1,73,23.64c0-0.49-0.16-0.89-0.49-1.2
		C72.19,22.13,71.77,21.98,71.27,21.98z"/>
	<rect x="69.94" y="27.01" class="st0" width="2.66" height="11.73"/>
	<rect x="75.85" y="22.12" class="st0" width="2.66" height="16.62"/>
</g>
<text transform="matrix(1 0 0 1 81.1738 -40.7822)" style="font-family:'Nexa-Bold'; font-size:12px;">Reason Rail</text>
</svg>
